<?xml version="1.0" encoding="utf-8"?>
<!-- Generator: Adobe Illustrator 18.1.1, SVG Export Plug-In . SVG Version: 6.00 Build 0)  -->
<svg version="1.1" id="Layer_1" xmlns="http://www.w3.org/2000/svg" xmlns:xlink="http://www.w3.org/1999/xlink" x="0px" y="0px"
	 width="100px" height="111px" viewBox="202 340 100 111" enable-background="new 202 340 100 111" xml:space="preserve">
<g>
	
		<linearGradient id="SVGID_1_" gradientUnits="userSpaceOnUse" x1="194.6807" y1="453.5419" x2="300.7702" y2="351.0245" gradientTransform="matrix(1 0 0 -1 0 794)">
		<stop  offset="0" style="stop-color:#DFF4FF"/>
		<stop  offset="9.840000e-002" style="stop-color:#D6EAF5"/>
		<stop  offset="0.2678" style="stop-color:#BFD0D9"/>
		<stop  offset="0.4879" style="stop-color:#98A5AC"/>
		<stop  offset="0.7469" style="stop-color:#646B6E"/>
		<stop  offset="1" style="stop-color:#2B2B2B"/>
	</linearGradient>
	<path fill="url(#SVGID_1_)" d="M252,345.8c-27.6,0-50,22.4-50,50c0,27.6,22.4,50,50,50c27.6,0,50-22.4,50-50
		C302,368.2,279.6,345.8,252,345.8z M252,443.3c-26.2,0-47.5-21.3-47.5-47.5c0-26.2,21.3-47.5,47.5-47.5c26.2,0,47.5,21.3,47.5,47.5
		C299.5,422.1,278.2,443.3,252,443.3z"/>
	<path fill="#333333" d="M299.9,395.8c0,26.4-21.4,47.9-47.9,47.9c-26.4,0-47.9-21.4-47.9-47.9c0-26.4,21.4-47.9,47.9-47.9
		C278.4,348,299.9,369.4,299.9,395.8z"/>
	
		<radialGradient id="SVGID_2_" cx="201.3768" cy="444.8441" r="71.0364" gradientTransform="matrix(1 0 0 -1 0 794)" gradientUnits="userSpaceOnUse">
		<stop  offset="0" style="stop-color:#FFFFFF"/>
		<stop  offset="0.3064" style="stop-color:#A8A8A8"/>
		<stop  offset="0.6461" style="stop-color:#4F4F4F"/>
		<stop  offset="0.8853" style="stop-color:#161616"/>
		<stop  offset="1" style="stop-color:#000000"/>
	</radialGradient>
	<path fill="url(#SVGID_2_)" d="M299.5,395.8c0,26.2-21.3,47.5-47.5,47.5c-26.2,0-47.5-21.3-47.5-47.5c0-26.2,21.3-47.5,47.5-47.5
		C278.2,348.3,299.5,369.6,299.5,395.8z"/>
	
		<linearGradient id="SVGID_3_" gradientUnits="userSpaceOnUse" x1="1450.4688" y1="53.8195" x2="1518.0367" y2="-11.4735" gradientTransform="matrix(-1 0 0 1 1738.9756 377.3057)">
		<stop  offset="0" style="stop-color:#DFF4FF"/>
		<stop  offset="8.550000e-002" style="stop-color:#D6EAF5"/>
		<stop  offset="0.2327" style="stop-color:#BED0D9"/>
		<stop  offset="0.4239" style="stop-color:#96A4AC"/>
		<stop  offset="0.6516" style="stop-color:#5F686D"/>
		<stop  offset="0.9075" style="stop-color:#1A1D1E"/>
		<stop  offset="1" style="stop-color:#000000"/>
	</linearGradient>
	<path fill="url(#SVGID_3_)" d="M283.8,395.8c0,17.6-14.3,31.8-31.8,31.8c-17.6,0-31.8-14.3-31.8-31.8c0-17.6,14.3-31.8,31.8-31.8
		C269.6,364,283.8,378.3,283.8,395.8z"/>
	<polygon points="253.3,363.1 256.6,354.4 256.6,363.1 259.1,363.1 259.1,350.6 255.3,350.6 251.9,359.6 251.9,359.6 248.5,350.6 
		244.7,350.6 244.7,363.1 247.2,363.1 247.2,354.4 250.5,363.1 	"/>
	<polygon points="287.8,368.8 283.5,375 290.2,371.7 292,373.9 281.4,379.2 279.3,376.6 283.4,370.4 283.4,370.4 276.5,373.3 
		274.4,370.8 281.5,361.3 283.3,363.5 278.9,369.5 285.8,366.4 	"/>
	<path fill="#333333" d="M229.8,366.4c-1-1-2.6-1.3-4-0.4c0.3-0.7,0.2-1.5,0-1.9c-0.6-1.2-0.9-1.3-1.4-1.7c-1.7-1.4-3.5-0.2-4.7,1.3
		l-6.1,7.3l9.6,8.1l6.5-7.7C231.1,369.6,231.3,367.9,229.8,366.4z M217.3,369.9l3.7-4.4c0.4-0.5,1.4-0.5,2,0
		c0.7,0.6,0.7,1.4,0.2,1.9l-3.6,4.3L217.3,369.9z M227.5,370.6l-3.8,4.6l-2.4-2l3.9-4.6c0.4-0.5,1.4-0.7,2.1-0.1
		C227.9,369.1,228,370,227.5,370.6z"/>
	
		<radialGradient id="SVGID_4_" cx="188.6189" cy="452.0783" r="170.69" gradientTransform="matrix(1 0 0 -1 0 794)" gradientUnits="userSpaceOnUse">
		<stop  offset="0" style="stop-color:#FFFFFF"/>
		<stop  offset="0.3102" style="stop-color:#FDFDFD"/>
		<stop  offset="0.4505" style="stop-color:#F6F6F6"/>
		<stop  offset="0.5567" style="stop-color:#E9E9E9"/>
		<stop  offset="0.6456" style="stop-color:#D7D7D7"/>
		<stop  offset="0.7238" style="stop-color:#BFBFBF"/>
		<stop  offset="0.7944" style="stop-color:#A2A2A2"/>
		<stop  offset="0.8593" style="stop-color:#808080"/>
		<stop  offset="0.9199" style="stop-color:#575757"/>
		<stop  offset="0.9746" style="stop-color:#2B2B2B"/>
		<stop  offset="1" style="stop-color:#141414"/>
	</radialGradient>
	<polygon fill="url(#SVGID_4_)" points="253.3,362.7 256.6,353.9 256.6,362.7 259.1,362.7 259.1,350.1 255.3,350.1 251.9,359.1 
		251.9,359.1 248.5,350.1 244.7,350.1 244.7,362.7 247.2,362.7 247.2,353.9 250.6,362.7 	"/>
	
		<radialGradient id="SVGID_5_" cx="188.6113" cy="452.0782" r="170.7045" gradientTransform="matrix(1 0 0 -1 0 794)" gradientUnits="userSpaceOnUse">
		<stop  offset="0" style="stop-color:#FFFFFF"/>
		<stop  offset="0.3102" style="stop-color:#FDFDFD"/>
		<stop  offset="0.4505" style="stop-color:#F6F6F6"/>
		<stop  offset="0.5567" style="stop-color:#E9E9E9"/>
		<stop  offset="0.6456" style="stop-color:#D7D7D7"/>
		<stop  offset="0.7238" style="stop-color:#BFBFBF"/>
		<stop  offset="0.7944" style="stop-color:#A2A2A2"/>
		<stop  offset="0.8593" style="stop-color:#808080"/>
		<stop  offset="0.9199" style="stop-color:#575757"/>
		<stop  offset="0.9746" style="stop-color:#2B2B2B"/>
		<stop  offset="1" style="stop-color:#141414"/>
	</radialGradient>
	<polygon fill="url(#SVGID_5_)" points="287.8,367.9 283.5,374.2 290.2,370.9 292.1,373.1 281.4,378.4 279.3,375.8 283.4,369.6 
		283.4,369.6 276.5,372.5 274.4,369.9 281.5,360.4 283.4,362.6 278.9,368.7 285.8,365.6 	"/>
	
		<radialGradient id="SVGID_6_" cx="188.602" cy="452.1284" r="170.8353" gradientTransform="matrix(1 0 0 -1 0 794)" gradientUnits="userSpaceOnUse">
		<stop  offset="0" style="stop-color:#FFFFFF"/>
		<stop  offset="0.3102" style="stop-color:#FDFDFD"/>
		<stop  offset="0.4505" style="stop-color:#F6F6F6"/>
		<stop  offset="0.5567" style="stop-color:#E9E9E9"/>
		<stop  offset="0.6456" style="stop-color:#D7D7D7"/>
		<stop  offset="0.7238" style="stop-color:#BFBFBF"/>
		<stop  offset="0.7944" style="stop-color:#A2A2A2"/>
		<stop  offset="0.8593" style="stop-color:#808080"/>
		<stop  offset="0.9199" style="stop-color:#575757"/>
		<stop  offset="0.9746" style="stop-color:#2B2B2B"/>
		<stop  offset="1" style="stop-color:#141414"/>
	</radialGradient>
	<path fill="url(#SVGID_6_)" d="M229.3,366.1c-1-1-2.6-1.3-4-0.4c0.3-0.7,0.2-1.5,0-1.9c-0.6-1.2-0.9-1.3-1.4-1.7
		c-1.7-1.4-3.5-0.2-4.7,1.3l-6.1,7.3l9.6,8.1l6.5-7.7C230.6,369.4,230.9,367.6,229.3,366.1z M216.9,369.6l3.7-4.4
		c0.4-0.5,1.4-0.5,2,0c0.7,0.6,0.7,1.4,0.2,1.9l-3.6,4.3L216.9,369.6z M227,370.4l-3.8,4.6l-2.4-2l3.9-4.6c0.4-0.5,1.4-0.7,2.1-0.1
		C227.4,368.8,227.5,369.8,227,370.4z"/>
	
		<radialGradient id="SVGID_7_" cx="219.1895" cy="428.4142" r="46.0403" gradientTransform="matrix(1 0 0 -1 0 794)" gradientUnits="userSpaceOnUse">
		<stop  offset="0" style="stop-color:#E6E6E6"/>
		<stop  offset="0.1045" style="stop-color:#D6D6D6"/>
		<stop  offset="0.3074" style="stop-color:#ADADAD"/>
		<stop  offset="0.5884" style="stop-color:#6C6C6C"/>
		<stop  offset="0.9335" style="stop-color:#121212"/>
		<stop  offset="1" style="stop-color:#000000"/>
	</radialGradient>
	<path fill="url(#SVGID_7_)" d="M221.2,395.8c0-17,13.8-30.8,30.8-30.8c17,0,30.8,13.8,30.8,30.8c0,17-13.8,30.8-30.8,30.8
		C235,426.6,221.2,412.9,221.2,395.8z"/>
	
		<radialGradient id="SVGID_8_" cx="231.7821" cy="422.2219" r="66.9557" gradientTransform="matrix(1 0 0 -1 0 794)" gradientUnits="userSpaceOnUse">
		<stop  offset="0" style="stop-color:#FFFFFF"/>
		<stop  offset="0.3435" style="stop-color:#FDFDFD"/>
		<stop  offset="0.4814" style="stop-color:#F6F6F6"/>
		<stop  offset="0.5824" style="stop-color:#EAEAEA"/>
		<stop  offset="0.6654" style="stop-color:#D8D8D8"/>
		<stop  offset="0.7373" style="stop-color:#C2C2C2"/>
		<stop  offset="0.8016" style="stop-color:#A6A6A6"/>
		<stop  offset="0.8602" style="stop-color:#848484"/>
		<stop  offset="0.9126" style="stop-color:#5F5F5F"/>
		<stop  offset="0.9494" style="stop-color:#404040"/>
		<stop  offset="0.9566" style="stop-color:#404040"/>
		<stop  offset="1" style="stop-color:#404040"/>
		<stop  offset="1" style="stop-color:#000000"/>
	</radialGradient>
	<path fill="url(#SVGID_8_)" d="M222.1,395.8c0-16.5,13.4-29.9,29.9-29.9s29.9,13.4,29.9,29.9c0,16.5-13.4,29.9-29.9,29.9
		S222.1,412.4,222.1,395.8z"/>
	
		<radialGradient id="SVGID_9_" cx="212.123" cy="447.6025" r="118.5794" gradientTransform="matrix(1 0 0 -1 0 794)" gradientUnits="userSpaceOnUse">
		<stop  offset="0.1685" style="stop-color:#FFFFFF"/>
		<stop  offset="0.1957" style="stop-color:#E0EFF7"/>
		<stop  offset="0.2406" style="stop-color:#B2D9EC"/>
		<stop  offset="0.2872" style="stop-color:#8BC5E2"/>
		<stop  offset="0.335" style="stop-color:#6BB5DA"/>
		<stop  offset="0.3844" style="stop-color:#52A9D4"/>
		<stop  offset="0.4359" style="stop-color:#41A0CF"/>
		<stop  offset="0.4911" style="stop-color:#369BCD"/>
		<stop  offset="0.5562" style="stop-color:#3399CC"/>
		<stop  offset="0.606" style="stop-color:#3396C8"/>
		<stop  offset="0.6553" style="stop-color:#328EBC"/>
		<stop  offset="0.7045" style="stop-color:#3180A8"/>
		<stop  offset="0.7536" style="stop-color:#2F6D8C"/>
		<stop  offset="0.8027" style="stop-color:#2D5468"/>
		<stop  offset="0.8512" style="stop-color:#2A373D"/>
		<stop  offset="0.8708" style="stop-color:#292929"/>
	</radialGradient>
	<path fill="url(#SVGID_9_)" d="M222.1,395.8H252v-29.9C235.5,365.9,222.1,379.3,222.1,395.8z"/>
	
		<radialGradient id="SVGID_10_" cx="212.123" cy="447.6034" r="118.5771" gradientTransform="matrix(1 0 0 -1 0 794)" gradientUnits="userSpaceOnUse">
		<stop  offset="0.1685" style="stop-color:#FFFFFF"/>
		<stop  offset="0.1957" style="stop-color:#E0EFF7"/>
		<stop  offset="0.2406" style="stop-color:#B2D9EC"/>
		<stop  offset="0.2872" style="stop-color:#8BC5E2"/>
		<stop  offset="0.335" style="stop-color:#6BB5DA"/>
		<stop  offset="0.3844" style="stop-color:#52A9D4"/>
		<stop  offset="0.4359" style="stop-color:#41A0CF"/>
		<stop  offset="0.4911" style="stop-color:#369BCD"/>
		<stop  offset="0.5562" style="stop-color:#3399CC"/>
		<stop  offset="0.606" style="stop-color:#3396C8"/>
		<stop  offset="0.6553" style="stop-color:#328EBC"/>
		<stop  offset="0.7045" style="stop-color:#3180A8"/>
		<stop  offset="0.7536" style="stop-color:#2F6D8C"/>
		<stop  offset="0.8027" style="stop-color:#2D5468"/>
		<stop  offset="0.8512" style="stop-color:#2A373D"/>
		<stop  offset="0.8708" style="stop-color:#292929"/>
	</radialGradient>
	<path fill="url(#SVGID_10_)" d="M252,395.8v29.9c16.5,0,29.9-13.4,29.9-29.9L252,395.8L252,395.8z"/>
	
		<radialGradient id="SVGID_11_" cx="219.8183" cy="427.8343" r="45.1579" gradientTransform="matrix(1 0 0 -1 0 794)" gradientUnits="userSpaceOnUse">
		<stop  offset="0" style="stop-color:#E6E6E6"/>
		<stop  offset="0.1045" style="stop-color:#D6D6D6"/>
		<stop  offset="0.3074" style="stop-color:#ADADAD"/>
		<stop  offset="0.5884" style="stop-color:#6C6C6C"/>
		<stop  offset="0.9335" style="stop-color:#121212"/>
		<stop  offset="1" style="stop-color:#000000"/>
	</radialGradient>
	<polygon fill="url(#SVGID_11_)" points="282.2,395.3 252.5,395.3 252.5,365.7 251.5,365.7 251.5,395.3 221.8,395.3 221.8,396.4 
		251.5,396.4 251.5,426 252.5,426 252.5,396.4 282.2,396.4 	"/>
	
		<linearGradient id="SVGID_12_" gradientUnits="userSpaceOnUse" x1="246.0789" y1="439.1095" x2="290.1166" y2="396.5545" gradientTransform="matrix(1 0 0 -1 0 794)">
		<stop  offset="0" style="stop-color:#F0F4FF"/>
		<stop  offset="0.1086" style="stop-color:#EBEFF9"/>
		<stop  offset="0.2475" style="stop-color:#DCE0EA"/>
		<stop  offset="0.4028" style="stop-color:#C4C7CF"/>
		<stop  offset="0.5701" style="stop-color:#A2A4AB"/>
		<stop  offset="0.7469" style="stop-color:#76777C"/>
		<stop  offset="0.9291" style="stop-color:#414243"/>
		<stop  offset="1" style="stop-color:#2B2B2B"/>
	</linearGradient>
	<path fill="url(#SVGID_12_)" d="M252.5,366.5c15.8,0.3,28.5,13,28.8,28.8h0.5c-0.3-16.1-13.3-29.1-29.4-29.4L252.5,366.5
		L252.5,366.5z"/>
	<path fill="#C2D7E8" d="M222.6,395.3c0.3-15.8,13-28.6,28.9-28.9v-0.5c-16.1,0.3-29.1,13.3-29.4,29.4L222.6,395.3L222.6,395.3z"/>
	
		<linearGradient id="SVGID_13_" gradientUnits="userSpaceOnUse" x1="210.3345" y1="403.1809" x2="254.3731" y2="360.6251" gradientTransform="matrix(1 0 0 -1 0 794)">
		<stop  offset="0" style="stop-color:#F0F4FF"/>
		<stop  offset="0.1086" style="stop-color:#EBEFF9"/>
		<stop  offset="0.2475" style="stop-color:#DCE0EA"/>
		<stop  offset="0.4028" style="stop-color:#C4C7CF"/>
		<stop  offset="0.5701" style="stop-color:#A2A4AB"/>
		<stop  offset="0.7469" style="stop-color:#76777C"/>
		<stop  offset="0.9291" style="stop-color:#414243"/>
		<stop  offset="1" style="stop-color:#2B2B2B"/>
	</linearGradient>
	<path fill="url(#SVGID_13_)" d="M251.5,425.2c-15.8-0.3-28.5-13-28.8-28.8h-0.5c0.3,16.1,13.3,29.1,29.4,29.4L251.5,425.2
		L251.5,425.2z"/>
	<path fill="#12404F" d="M281.4,396.4c-0.3,15.8-13,28.5-28.8,28.8v0.5c16.1-0.3,29.1-13.3,29.4-29.4H281.4z"/>
	
		<linearGradient id="SVGID_14_" gradientUnits="userSpaceOnUse" x1="231.6394" y1="418.3555" x2="254.475" y2="396.2888" gradientTransform="matrix(1 0 0 -1 0 794)">
		<stop  offset="0" style="stop-color:#C2D7E8"/>
		<stop  offset="0.1337" style="stop-color:#BACFE1"/>
		<stop  offset="0.3425" style="stop-color:#A4BACD"/>
		<stop  offset="0.6001" style="stop-color:#8098AC"/>
		<stop  offset="0.894" style="stop-color:#4E697F"/>
		<stop  offset="1" style="stop-color:#3A566D"/>
	</linearGradient>
	<polygon fill="url(#SVGID_14_)" points="250.9,365.9 250.9,394.7 222.1,394.7 222.1,395.3 250.9,395.3 251.5,395.3 251.5,394.7 
		251.5,365.9 	"/>
	
		<linearGradient id="SVGID_15_" gradientUnits="userSpaceOnUse" x1="220.2027" y1="412.9484" x2="263.7981" y2="370.821" gradientTransform="matrix(1 0 0 -1 0 794)">
		<stop  offset="0" style="stop-color:#F0F4FF"/>
		<stop  offset="9.730001e-002" style="stop-color:#E8EBF6"/>
		<stop  offset="0.2568" style="stop-color:#D1D4DD"/>
		<stop  offset="0.4587" style="stop-color:#ABAEB5"/>
		<stop  offset="0.6951" style="stop-color:#78797D"/>
		<stop  offset="0.9578" style="stop-color:#363637"/>
		<stop  offset="1" style="stop-color:#2B2B2B"/>
	</linearGradient>
	<polygon fill="url(#SVGID_15_)" points="250.9,425.5 250.9,397 222.3,397 222.3,396.4 250.9,396.4 251.4,396.4 251.4,397 
		251.4,425.5 	"/>
	
		<linearGradient id="SVGID_16_" gradientUnits="userSpaceOnUse" x1="252.3352" y1="397.3215" x2="267.6272" y2="382.5443" gradientTransform="matrix(1 0 0 -1 0 794)">
		<stop  offset="0" style="stop-color:#D9DEF0"/>
		<stop  offset="0.1229" style="stop-color:#D4DAEC"/>
		<stop  offset="0.2629" style="stop-color:#C7CFE2"/>
		<stop  offset="0.4114" style="stop-color:#B0BCD1"/>
		<stop  offset="0.5657" style="stop-color:#90A1B8"/>
		<stop  offset="0.7246" style="stop-color:#677F99"/>
		<stop  offset="0.8849" style="stop-color:#355674"/>
		<stop  offset="0.9719" style="stop-color:#173D5D"/>
	</linearGradient>
	<polygon fill="url(#SVGID_16_)" points="253.1,425.5 253.1,397 281.6,397 281.6,396.4 253.1,396.4 252.6,396.4 252.6,397 
		252.6,425.5 	"/>
	
		<linearGradient id="SVGID_17_" gradientUnits="userSpaceOnUse" x1="236.6919" y1="428.9369" x2="280.24" y2="386.8551" gradientTransform="matrix(1 0 0 -1 0 794)">
		<stop  offset="0" style="stop-color:#F0F4FF"/>
		<stop  offset="0.1086" style="stop-color:#EBEFF9"/>
		<stop  offset="0.2475" style="stop-color:#DCE0EA"/>
		<stop  offset="0.4028" style="stop-color:#C4C7CF"/>
		<stop  offset="0.5701" style="stop-color:#A2A4AB"/>
		<stop  offset="0.7469" style="stop-color:#76777C"/>
		<stop  offset="0.9291" style="stop-color:#414243"/>
		<stop  offset="1" style="stop-color:#2B2B2B"/>
	</linearGradient>
	<polygon fill="url(#SVGID_17_)" points="253.1,366.2 253.1,394.6 281.6,394.6 281.6,395.2 253.1,395.2 252.6,395.2 252.6,394.6 
		252.6,366.2 	"/>
</g>
</svg>
