<svg width="180px" height="72px" viewBox="0 0 180 72" fill="none" xmlns="http://www.w3.org/2000/svg"><path d="M26.413 47.15 39.778 24.5a20.84 20.84 0 0 0-.745-1.84l-23.66-9.99L.233 34.337c.054.35.117.702.185 1.05L26.413 47.15Z" fill="#303033"/><path d="M84.88 49.86h-5.496a.062.062 0 0 1-.053-.024l-4.737-5.777-4.738 5.777c-.013.018-.035.024-.052.024h-4.4c-.03 0-.054-.014-.067-.04-.013-.02-.006-.05.01-.072l6.978-8.565-6.901-8.484a.088.088 0 0 1-.008-.079c.011-.016.037-.04.058-.04h5.5c.017 0 .042.013.053.035l4.152 5.145 4.23-5.15a.07.07 0 0 1 .052-.03h4.483c.025 0 .053.024.061.04.014.026.008.055-.008.079l-6.545 7.859 7.48 9.19c.018.023.021.051.006.071a.06.06 0 0 1-.058.04ZM114.634 35.624c-2.431 0-4.096 1.476-4.574 4.049h8.283v-.17c0-2.053-1.515-3.879-3.709-3.879Zm7.977 6.681c-.009.017-.034.029-.061.029h-12.578c.262 2.928 2.164 4.598 5.245 4.598 1.896 0 3.908-.65 6.753-2.162.047-.025.103.019.103.07l-.009 3.865c-.005.035-.018.054-.037.06-2.647 1.119-5.309 1.874-7.393 1.874-5.415 0-9.348-3.942-9.348-9.38 0-5.431 3.933-9.38 9.348-9.38 4.94 0 8.117 3.33 8.117 7.905 0 .74-.134 2.464-.14 2.521ZM148.168 29.014c-1.545 0-2.799-1.236-2.799-2.754 0-1.562 1.254-2.835 2.799-2.835 1.543 0 2.794 1.273 2.794 2.835 0 1.518-1.249 2.754-2.794 2.754Zm-2.264 20.847c-.043 0-.069-.028-.069-.071V32.65a.07.07 0 0 1 .055-.067h4.546a.067.067 0 0 1 .054.068V49.79c0 .044-.029.07-.066.07h-4.52ZM93.197 47.28c-.826 0-1.663-.114-2.623-.37l.006-11c1.127-.358 2.112-.525 3.083-.525 3.149 0 5.263 2.32 5.263 5.773 0 3.721-2.249 6.122-5.73 6.122Zm1.231-15.395c-1.282 0-2.574.229-3.931.697h-4.524c-.038 0-.066.035-.066.069v28.104a10.404 10.404 0 0 0 4.67-1.829l-.003-8.549c1.109.16 2.032.262 2.92.262 6.193 0 10.201-3.71 10.201-9.453 0-5.475-3.815-9.301-9.267-9.301ZM137.633 45.858c-1.419.74-2.681 1.096-3.867 1.096-2.806 0-4.487-1.98-4.487-5.3 0-3.835 2.145-6.32 5.464-6.32.915 0 1.808.221 2.89.71v9.814Zm0-22.347v8.97c-1.328-.384-2.497-.558-3.673-.558-5.392 0-9.458 4.062-9.458 9.46 0 5.363 3.59 9.256 8.526 9.256 1.71 0 3.316-.427 5.197-1.395l-.008 1.552a10.402 10.402 0 0 0 4.078-1.738V21.675c-1.381.182-3.019.646-4.662 1.836ZM166.233 45.822c-1.372.79-2.546 1.172-3.594 1.172-3.003 0-4.798-1.976-4.798-5.305 0-3.78 2.115-6.318 5.267-6.318.849 0 1.867.322 3.125.985v9.466Zm4.671-13.445a.198.198 0 0 0-.198-.193l-3.67.007a.198.198 0 0 0-.199.198v.62h-.091c-1.695-.74-3.145-1.088-4.567-1.088-5.081 0-9.067 4.217-9.067 9.613 0 5.454 3.565 9.105 8.873 9.105 1.413 0 3.238-.094 4.937-2.055v2.204a10.521 10.521 0 0 0 3.976-1.735l.006-16.676ZM52.845 45.516l11.382-.005a10.274 10.274 0 0 1-1.589 4.279H50.796c-1.448 0-2.64-1.123-2.783-2.543-.003-.02-.014-.04-.018-.056V24.746c.004-.017.014-.037.018-.055.142-1.425 1.335-2.55 2.783-2.55.05 0 .09.009.132.009l13.273-.004a10.395 10.395 0 0 1-1.589 4.308h-9.767v6.107h9.667a.07.07 0 0 1 .072.067v4.24c0 .032-.03.065-.072.065h-9.667v8.583Z" fill="#fff"/><path d="M84.882 49.858h-5.496a.068.068 0 0 1-.054-.021l-4.735-5.778-4.738 5.778c-.013.016-.037.021-.055.021h-4.4a.068.068 0 0 1-.064-.04c-.013-.02-.008-.048.01-.07l6.976-8.564-6.897-8.486a.073.073 0 0 1-.01-.076c.01-.019.036-.042.062-.042h5.495c.017 0 .042.012.053.034l4.154 5.147 4.227-5.153a.074.074 0 0 1 .055-.028h4.481c.027 0 .053.023.064.042a.073.073 0 0 1-.011.075l-6.544 7.86 7.479 9.19c.02.023.024.051.01.072-.015.027-.037.04-.062.04ZM114.634 35.623c-2.432 0-4.099 1.476-4.576 4.05h8.285v-.17c0-2.055-1.515-3.88-3.709-3.88Zm7.975 6.68c-.009.017-.032.03-.06.03h-12.574c.256 2.926 2.16 4.597 5.24 4.597 1.897 0 3.909-.648 6.757-2.16.043-.027.103.017.103.071l-.009 3.862c-.006.034-.018.054-.04.06-2.645 1.12-5.308 1.876-7.393 1.876-5.417 0-9.345-3.943-9.345-9.382 0-5.43 3.928-9.378 9.345-9.378 4.941 0 8.117 3.325 8.117 7.902 0 .742-.133 2.464-.141 2.522ZM148.17 29.014c-1.544 0-2.801-1.237-2.801-2.756 0-1.561 1.257-2.835 2.801-2.835 1.543 0 2.795 1.274 2.795 2.835 0 1.52-1.252 2.756-2.795 2.756Zm-2.263 20.845c-.044 0-.071-.026-.071-.069V32.65c0-.034.022-.06.055-.066h4.545a.065.065 0 0 1 .057.066v17.14c0 .044-.028.069-.067.069h-4.519ZM93.197 47.28c-.824 0-1.662-.113-2.623-.372l.007-10.997c1.128-.362 2.112-.528 3.084-.528 3.147 0 5.262 2.322 5.262 5.776 0 3.719-2.248 6.12-5.73 6.12Zm1.23-15.4c-1.281 0-2.571.232-3.93.698h-4.523c-.04 0-.065.034-.065.07v28.104a10.409 10.409 0 0 0 4.668-1.828l-.004-8.547c1.11.16 2.032.262 2.92.262 6.194 0 10.202-3.71 10.202-9.453 0-5.48-3.813-9.305-9.267-9.305ZM137.633 45.858c-1.415.739-2.678 1.096-3.867 1.096-2.806 0-4.486-1.982-4.486-5.302 0-3.833 2.147-6.32 5.464-6.32.916 0 1.809.22 2.889.712v9.814Zm0-22.35v8.972c-1.325-.386-2.494-.557-3.673-.557-5.39 0-9.457 4.06-9.457 9.458 0 5.364 3.589 9.258 8.526 9.258 1.709 0 3.315-.427 5.196-1.395l-.008 1.55c1.244-.24 2.67-.739 4.081-1.736V21.672c-1.381.183-3.02.647-4.665 1.835ZM166.233 45.821c-1.371.79-2.546 1.173-3.594 1.173-3.003 0-4.798-1.977-4.798-5.305 0-3.78 2.116-6.32 5.267-6.32.849 0 1.867.32 3.125.988v9.464Zm4.671-13.446a.199.199 0 0 0-.198-.193l-3.67.008a.2.2 0 0 0-.199.197v.623h-.091c-1.695-.74-3.145-1.088-4.567-1.088-5.081 0-9.067 4.215-9.067 9.613 0 5.452 3.565 9.105 8.873 9.105 1.416 0 3.238-.095 4.938-2.058v2.207a10.527 10.527 0 0 0 3.975-1.737l.006-16.677ZM52.847 45.514l11.38-.002a10.324 10.324 0 0 1-1.588 4.28H50.797c-1.448 0-2.64-1.124-2.783-2.546-.004-.018-.013-.038-.017-.056V24.744c.004-.016.013-.038.017-.055.144-1.424 1.335-2.55 2.783-2.55.047 0 .09.009.133.009l13.271-.006a10.393 10.393 0 0 1-1.588 4.31h-9.766v6.108h9.668c.042 0 .072.032.072.065v4.241c0 .033-.03.066-.072.066h-9.668v8.581ZM175.752 31.916h.526c.591 0 .869-.166.869-.573 0-.424-.297-.599-.908-.599h-.487v1.172Zm.636-1.679c1.055 0 1.581.358 1.581 1.015 0 .544-.296.913-.832 1.035l.832 1.689h-.895l-.74-1.56h-.582v1.56h-.801v-3.739h1.437Zm-2.057-.102c-.554.564-.859 1.285-.859 2.03 0 .748.286 1.45.823 1.995.542.545 1.254.849 1.974.849a2.91 2.91 0 0 0 2.06-.83 2.718 2.718 0 0 0 .829-1.966c0-.804-.278-1.498-.811-2.041a2.813 2.813 0 0 0-2.031-.85c-.775 0-1.45.276-1.985.813Zm4.367-.306a3.28 3.28 0 0 1 .951 2.336c0 .924-.342 1.745-.978 2.364a3.386 3.386 0 0 1-2.366.978 3.3 3.3 0 0 1-2.361-1.005 3.292 3.292 0 0 1-.97-2.337c0-.886.358-1.735 1.005-2.38.627-.628 1.422-.952 2.326-.952.915 0 1.745.342 2.393.996ZM23.941 26.514l-.824-2.333-6.991-9.344 1.255-.313 12.056 10.421 7.093-2.03c.834-.213 1.778-.26 2.502-.255a20.412 20.412 0 0 0-11.697-10.677c-10.65-3.794-22.359 1.77-26.147 12.423a20.416 20.416 0 0 0-.956 9.93l16.992-5.903 6.717-1.92ZM39.778 24.501c-.624.4-1.536.935-2.445 1.226l-7.111 2.027-4.744 15.228-1.231.402 1.003-11.632-.562-2.414-6.66 1.903L.416 35.386c1.4 6.774 6.194 12.678 13.187 15.17 10.652 3.795 22.354-1.772 26.145-12.418a20.4 20.4 0 0 0 .03-13.637ZM38.618 50.217c-1.124 0-1.82-.878-1.82-1.953 0-1.152.798-1.956 1.82-1.956 1.013 0 1.808.804 1.808 1.956 0 1.153-.795 1.953-1.808 1.953Zm0-4.13c-1.151 0-2.136.866-2.136 2.176 0 1.235.888 2.167 2.136 2.167 1.139 0 2.125-.86 2.125-2.167 0-1.31-.986-2.176-2.125-2.176Z" fill="#fff"/><path d="M38.107 48.084v-.79h.537c.268 0 .589.036.589.368 0 .39-.296.422-.63.422h-.496Zm1.52-.37c0-.521-.318-.74-.938-.74h-.975v2.57h.422v-1.098h.396l.667 1.099h.476l-.719-1.128c.388-.048.672-.236.672-.703Z" fill="#fff"/></svg>
