<svg width="138px" height="57px" fill="none" viewBox="0 0 138 57" xmlns="http://www.w3.org/2000/svg"><path d="M137.487 16.802c1.868 10.707-27.279 24.727-65.108 31.315-37.824 6.588-70 3.246-71.866-7.466-1.865-10.707 27.29-24.725 65.114-31.31 37.826-6.593 69.997-3.248 71.86 7.461z" fill="#034ea2"/><g fill="#fff"><path d="M101.885 32.694l-.193-11.132h3.51v14.032h-5.046l-3.504-11.515h-.076l.195 11.515h-3.489V21.562h5.267l3.26 11.132zM38.076 22.877L36.134 35.74h-3.83l2.628-14.179h6.307l2.62 14.179h-3.816l-1.888-12.864zM54.61 32.402l1.752-10.84h5.783l.306 14.179h-3.543l-.093-12.748h-.074l-2.37 12.748h-3.597L50.4 22.993h-.076l-.089 12.748h-3.55l.313-14.179h5.786l1.749 10.84zM26.334 31.741c.112.34.123.705.032 1.052a1.232 1.232 0 01-1.38.952 1.268 1.268 0 01-1.43-1.287v-1.372h-3.804l-.003 1.097c0 3.161 2.49 4.116 5.157 4.116 2.565 0 4.677-.876 5.012-3.24.124-.772.119-1.56-.015-2.33-.598-2.968-5.98-3.855-6.38-5.513-.056-.246-.06-.5-.015-.749a1.17 1.17 0 011.296-.95 1.212 1.212 0 011.318 1.288v.876h3.535v-.995c0-3.09-2.772-3.572-4.78-3.572-2.522 0-4.583.833-4.96 3.14a4.973 4.973 0 00.03 1.917c.622 2.894 5.656 3.733 6.388 5.57zM72.441 31.716c.11.335.12.696.031 1.037a1.214 1.214 0 01-1.369.944 1.257 1.257 0 01-1.411-1.27l-.003-1.36h-3.765l-.005 1.082c0 3.13 2.466 4.074 5.105 4.074 2.537 0 4.629-.865 4.96-3.206a6.782 6.782 0 00-.01-2.305c-.596-2.94-5.922-3.818-6.32-5.462a1.793 1.793 0 01-.014-.734 1.156 1.156 0 011.285-.942 1.19 1.19 0 011.3 1.27v.868h3.51v-.987c0-3.055-2.75-3.535-4.74-3.535-2.494 0-4.538.823-4.906 3.116a4.862 4.862 0 00.034 1.893c.609 2.866 5.595 3.7 6.318 5.517zM84.35 33.62a1.275 1.275 0 001.358-1.028c.028-.18.039-.36.034-.542V21.556h3.586v10.171c.008.26-.017.797-.032.93-.252 2.647-2.344 3.506-4.949 3.506-2.608 0-4.703-.859-4.952-3.506a13.433 13.433 0 01-.031-.93v-10.17h3.583v10.49c-.004.181.007.363.034.542a1.291 1.291 0 001.369 1.032zM113.93 33.47a1.33 1.33 0 001.451-1.026c.025-.178.036-.358.031-.538v-2.058h-1.454v-2.07h5.029v3.807a10.28 10.28 0 01-.051.936c-.235 2.58-2.475 3.5-4.986 3.5-2.518 0-4.751-.92-4.992-3.5-.04-.474-.046-.67-.051-.936l.003-5.97c0-.252.031-.697.059-.935.315-2.65 2.463-3.504 4.981-3.504 2.514 0 4.717.848 4.977 3.504.028.311.039.623.032.935v.474h-3.575v-.794a3.598 3.598 0 00-.045-.539 1.29 1.29 0 00-1.415-1.034 1.306 1.306 0 00-1.412 1.034c-.042.22-.062.445-.059.67v6.485c-.004.18.008.36.037.539a1.313 1.313 0 001.44 1.02z"/></g></svg>
