<svg width="138px" height="72px" viewBox="0 0 139 72" fill="none" xmlns="http://www.w3.org/2000/svg"><path d="m46.85 56.9 6.735-41.69H64.35L57.616 56.9H46.851ZM96.661 16.232c-2.127-.837-5.475-1.75-9.645-1.75-10.643 0-18.135 5.659-18.197 13.76-.067 5.992 5.346 9.334 9.428 11.326 4.194 2.041 5.603 3.348 5.587 5.174-.029 2.791-3.348 4.07-6.443 4.07-4.31 0-6.6-.629-10.14-2.185l-1.385-.664-1.505 9.332c2.51 1.161 7.164 2.169 11.993 2.222 11.311 0 18.66-5.59 18.746-14.24.04-4.752-2.83-8.355-9.042-11.328-3.761-1.933-6.07-3.214-6.044-5.17.003-1.733 1.95-3.588 6.168-3.588 3.52-.056 6.07.754 8.056 1.602l.965.477 1.458-9.038ZM110.997 42.119c.891-2.397 4.288-11.653 4.288-11.653-.063.11.887-2.415 1.431-3.978l.726 3.596s2.065 9.95 2.491 12.035h-8.936Zm13.28-26.867h-8.32c-2.58 0-4.511.738-5.641 3.456L94.329 56.914h11.307s1.845-5.14 2.263-6.268c1.234 0 12.219.022 13.788.022.322 1.455 1.311 6.246 1.311 6.246h9.991l-8.712-41.662ZM37.82 15.245 27.282 43.667l-1.129-5.778c-1.963-6.656-8.075-13.872-14.912-17.487l9.64 36.461 11.392-.007 16.953-41.611H37.819Z" fill="#fff"/><path d="M17.503 15.216H.143L0 16.08c13.508 3.454 22.445 11.79 26.155 21.81l-3.772-19.156c-.651-2.642-2.543-3.425-4.88-3.518ZM136.051 54.175h.51c.361 0 .434-.21.434-.38 0-.29-.189-.358-.482-.358h-.462v.738Zm-.441-1.062h1.052c.244 0 .783.064.783.682 0 .164-.049.395-.401.545v.013c.303.052.32.339.338.57.022.368 0 .434.095.564h-.455c-.087-.088-.068-.156-.087-.542 0-.22-.029-.443-.522-.443h-.362v.985h-.441v-2.374Zm.87 3.222c1.08 0 1.927-.896 1.927-2.016 0-1.121-.847-2.017-1.927-2.017s-1.928.896-1.928 2.017c0 1.12.848 2.016 1.928 2.016Zm0-4.394a2.367 2.367 0 0 1 2.377 2.378 2.367 2.367 0 0 1-2.377 2.377 2.365 2.365 0 0 1-2.376-2.377 2.365 2.365 0 0 1 2.376-2.378Z" fill="#fff"/></svg>
