<svg width="72px" height="72px" viewBox="0 0 72 72" fill="none" xmlns="http://www.w3.org/2000/svg"><path fill-rule="evenodd" clip-rule="evenodd" d="M35.996 72A36 36 0 1 0 0 36a35.906 35.906 0 0 0 35.996 36ZM25.567 52.272c-.226 0-.288-.206-.432-.432L8.577 18.432A33.072 33.072 0 0 1 20.302 7.426l11.95 26.558a.846.846 0 0 0 .864.576h5.76a.85.85 0 0 0 .946-.576l11.95-26.558a33.592 33.592 0 0 1 11.724 11.006L46.794 51.84c-.061.226-.205.432-.431.432-.206 0-.288-.206-.432-.432l-6.253-14.256a.871.871 0 0 0-.947-.576h-5.759a.836.836 0 0 0-.925.576L25.998 51.84c-.082.226-.226.432-.432.432Zm10.429-23.678c-.206 0-.288-.226-.432-.432L25.34 5.122a31.258 31.258 0 0 1 21.31 0l-10.223 23.04c-.144.288-.206.432-.432.432Zm0 40.094A32.777 32.777 0 0 1 3.394 36a32.142 32.142 0 0 1 2.077-11.438L24.56 62.928a1.29 1.29 0 0 0 1.152.946 1.31 1.31 0 0 0 1.152-.946l8.783-19.646c.062-.226.206-.432.432-.432.206 0 .288.206.432.432l8.783 19.646a1.29 1.29 0 0 0 1.152.946 1.31 1.31 0 0 0 1.152-.946l19.067-38.366A31.71 31.71 0 0 1 68.762 36a32.999 32.999 0 0 1-32.766 32.688Z" fill="#fff"/></svg>
